<?xml version="1.0" encoding="UTF-8"?>
<svg width="20px" height="20px" viewBox="0 0 20 20" version="1.1" xmlns="http://www.w3.org/2000/svg" xmlns:xlink="http://www.w3.org/1999/xlink">
    <!-- Generator: Sketch 45.2 (43514) - http://www.bohemiancoding.com/sketch -->
    <title>Anchor_nor</title>
    <desc>Created with Sketch.</desc>
    <defs></defs>
    <g id="切图" stroke="none" stroke-width="1" fill="none" fill-rule="evenodd">
        <g id="Anchor_nor" fill-rule="nonzero" fill="#8492A6">
            <path d="M9.99279778,1 C5.02631681,1 1,5.03367663 1,10.0094704 C1,14.9852641 5.02631681,19.0190563 9.99279778,19.0190563 C14.9592788,19.0190563 18.985634,14.9852641 18.985634,10.0094704 C18.985634,5.03367663 14.9592788,1 9.99279778,1 Z M7.62740948,5.97592857 C7.62740948,4.53554442 8.55644119,3.36816984 9.9939514,3.36816984 C11.4313847,3.36816984 12.3604933,4.53554442 12.3604933,5.97592857 L12.3604933,10.2440317 C12.3604933,11.6845314 11.4313847,12.8518867 9.99395142,12.8518867 C8.5564412,12.8518867 7.6274095,11.6845314 7.6274095,10.2440317 L7.62740948,5.97592857 Z M14.0159037,10.2440317 C14.0159037,12.3971726 12.5573783,14.3930146 10.4346546,14.5013863 L10.4672636,14.5013863 L10.4672636,16.1767363 L12.359282,16.1767363 L12.359282,16.8852744 L7.62625586,16.8852744 L7.62625586,16.1767363 L9.52063918,16.1767363 L9.52063918,14.5013863 L9.55090256,14.5013863 C7.42821727,14.3930146 5.96971113,12.3971726 5.96971113,10.2440317 L5.96971113,8.3498387 L6.66486504,8.3498387 L6.66486504,10.2440317 C6.66486504,12.2049698 8.03531131,13.8030573 9.9927978,13.8030573 C11.9502458,13.8030573 13.2911209,12.2049698 13.2911209,10.2440317 L13.2911209,8.3498387 L14.0159037,8.3498387 L14.0159037,10.2440317 Z" id="Shape"></path>
        </g>
    </g>
</svg>