<?xml version="1.0" encoding="UTF-8"?>
<svg width="20px" height="20px" viewBox="0 0 20 20" version="1.1" xmlns="http://www.w3.org/2000/svg" xmlns:xlink="http://www.w3.org/1999/xlink">
    <!-- Generator: Sketch 45.2 (43514) - http://www.bohemiancoding.com/sketch -->
    <title>Banner_active</title>
    <desc>Created with Sketch.</desc>
    <defs></defs>
    <g id="切图" stroke="none" stroke-width="1" fill="none" fill-rule="evenodd">
        <g id="Banner_active" fill="#FFFFFF">
            <path d="M19.0914088,8.74940008 C19.0207393,8.35836313 18.6403707,7.95909382 18.2433741,7.87265406 L17.9482247,7.80473712 C17.2540001,7.59687012 16.6387592,7.1420324 16.2459196,6.47315341 C15.8551584,5.80015824 15.7616252,5.03454904 15.9320635,4.33479871 L15.9320635,4.33479871 L16.0255968,4.05901474 C16.1440722,3.67826825 15.990262,3.15345549 15.680563,2.89207816 C15.680563,2.89207816 15.4020418,2.65951407 14.6205196,2.21290872 C13.8369188,1.76836145 13.5001991,1.6448761 13.5001991,1.6448761 C13.1198305,1.50698412 12.5856517,1.63870183 12.3071305,1.93095049 L12.1013574,2.14910794 C11.5754927,2.64304936 10.8667185,2.9414723 10.0831177,2.9414723 C9.29951697,2.9414723 8.58450721,2.63893319 8.05864251,2.1429337 L7.8591049,1.93095051 C7.5847407,1.63870183 7.04848342,1.50904222 6.66603636,1.64487612 C6.66603636,1.64487612 6.32515963,1.76836147 5.54155886,2.21290874 C4.75795808,2.66363027 4.48359388,2.89619434 4.48359388,2.89619434 C4.17389491,3.15345549 4.02008466,3.67415207 4.13856013,4.05901474 L4.22377931,4.33685679 C4.39006065,5.03866521 4.30276294,5.80015822 3.90992329,6.47315339 C3.51708365,7.14614856 2.89560716,7.60510247 2.19722558,7.80885329 L1.9124688,7.87265404 C1.52170766,7.96115188 1.13718209,8.35630501 1.06443401,8.74940006 C1.06443401,8.74940006 1,9.10133331 1,9.99660212 C1,10.8918709 1.06443401,11.2438042 1.06443401,11.2438042 C1.13510358,11.6389573 1.51547211,12.0341104 1.9124688,12.1205502 L2.19099003,12.1843509 C2.88937162,12.3881018 3.51500514,12.8470557 3.90576625,13.524167 C4.29652739,14.1971622 4.39006063,14.9627714 4.21962227,15.6625217 L4.21962227,15.6625217 L4.13856013,15.9341895 C4.02008468,16.314936 4.17389491,16.8397488 4.48359388,17.1011261 C4.48359388,17.1011261 4.76211512,17.3336902 5.54363737,17.7802955 C6.32723816,18.2269009 6.66395785,18.3483282 6.66395785,18.3483282 C7.0443264,18.4862201 7.57850518,18.3545024 7.85702639,18.0622538 L8.05240696,17.8543868 C8.5824287,17.3583873 9.29535991,17.0537901 10.0810392,17.0537901 C10.8667185,17.0537901 11.5838067,17.3604453 12.1096714,17.8564448 L12.1096714,17.8564448 L12.305052,18.0643118 C12.5794162,18.3565605 13.1156735,18.4862201 13.4981205,18.3503862 C13.4981205,18.3503862 13.8389973,18.2269009 14.622598,17.7823536 C15.4061988,17.3357483 15.680563,17.1031842 15.680563,17.1031842 C15.990262,16.845923 16.1440722,16.3211103 16.0255968,15.9362476 L15.9403776,15.6542894 C15.7740962,14.9565971 15.8613939,14.1951041 16.2542336,13.5262251 C16.6449947,12.8532299 17.2727067,12.3922179 17.9690098,12.186409 L17.9690098,12.186409 L18.2475311,12.1226083 C18.6382922,12.0341104 19.0228178,11.6389573 19.0955658,11.2458623 C19.0955658,11.2458623 19.1599998,10.893929 19.1599998,9.9986602 C19.1558428,9.10339143 19.0914088,8.74940008 19.0914088,8.74940008 L19.0914088,8.74940008 L19.0914088,8.74940008 L19.0914088,8.74940008 Z M10.0831177,13.5817936 C8.08566321,13.5817936 6.46234172,11.9785421 6.46234172,9.99660214 C6.46234172,8.01877839 8.08150617,6.4155269 10.0831177,6.4155269 C12.0805722,6.4155269 13.7038937,8.01877839 13.7038937,10.0007183 C13.6997367,11.9785421 12.0805722,13.5817936 10.0831177,13.5817936 L10.0831177,13.5817936 L10.0831177,13.5817936 L10.0831177,13.5817936 Z" id="Shape"></path>
        </g>
    </g>
</svg>