<?xml version="1.0" encoding="UTF-8"?>
<svg width="17px" height="19px" viewBox="0 0 17 19" version="1.1" xmlns="http://www.w3.org/2000/svg" xmlns:xlink="http://www.w3.org/1999/xlink">
    <!-- Generator: Sketch 46 (44423) - http://www.bohemiancoding.com/sketch -->
    <title>User</title>
    <desc>Created with Sketch.</desc>
    <defs></defs>
    <g id="切图" stroke="none" stroke-width="1" fill="none" fill-rule="evenodd">
        <g id="User" fill-rule="nonzero" fill="#fff">
            <g id="Group-2">
                <path d="M16.956318,18.3298292 C11.3267796,18.3298292 5.69187438,18.3298292 0.0222349472,18.3298292 C0.0564504495,16.6956426 -0.189163036,15.0507556 0.682484534,13.5473977 C1.51419072,12.113071 2.73577415,11.2409931 4.35677127,10.93952 C4.48260055,10.9161556 4.65104458,10.965269 4.76105295,11.038949 C7.11801268,12.618592 9.88647625,12.6179708 12.2554064,11.0391695 C12.372198,10.9613615 12.5553657,10.9222071 12.6930058,10.9469542 C14.997974,11.3615223 16.7168893,13.1839868 16.9419735,15.5345954 C17.0297966,16.4517189 16.956318,17.384432 16.956318,18.3298292 Z" id="Shape"></path>
                <path d="M13.2469978,5.63164964 C13.2444241,8.27595653 11.1076407,10.4238597 8.49794507,10.4054247 C5.8656652,10.3868093 3.75968569,8.25283258 3.76688792,5.61155144 C3.77413003,2.98922634 5.89110239,0.864226644 8.50085788,0.859577815 C11.1256762,0.854908935 13.2495315,2.99026831 13.2469978,5.63164964 Z" id="Shape"></path>
            </g>
        </g>
    </g>
</svg>
