<?xml version="1.0" encoding="UTF-8"?>
<svg width="18px" height="18px" viewBox="0 0 18 18" version="1.1" xmlns="http://www.w3.org/2000/svg" xmlns:xlink="http://www.w3.org/1999/xlink">
    <!-- Generator: Sketch 46 (44423) - http://www.bohemiancoding.com/sketch -->
    <title>Shape</title>
    <desc>Created with Sketch.</desc>
    <defs></defs>
    <g id="切图" stroke="none" stroke-width="1" fill="none" fill-rule="evenodd">
        <path d="M8.6472447,17.2850623 C6.43867381,17.2864233 4.21788448,16.4670707 2.53293963,14.8386037 L2.53293963,14.8386037 C0.846775031,13.2108275 -0.00149116248,11.065669 1.96771619e-06,8.93227248 L1.96771619e-06,8.93227248 C-0.00149116248,6.79889626 0.846775031,4.65367687 2.53308684,3.0260428 L2.53308684,3.0260428 C3.04630302,2.53045775 3.87839714,2.53045775 4.39155024,3.02626625 L4.39155024,3.02626625 C4.90478746,3.52191224 4.9045351,4.32572454 4.391382,4.82141116 L4.391382,4.82141116 C3.21357567,5.9599201 2.62990897,7.4400325 2.62841584,8.93225217 L2.62841584,8.93225217 C2.62993,10.4243703 3.21357567,11.9047671 4.39155024,13.0434791 L4.39155024,13.0434791 C5.56967203,14.1808505 7.10233863,14.7445693 8.64720264,14.7460116 L8.64720264,14.7460116 C10.1920877,14.7445897 11.7247963,14.181013 12.9034228,13.0434791 L12.9034228,13.0434791 C14.0811451,11.9047467 14.6648328,10.4243703 14.6662839,8.93225217 L14.6662839,8.93225217 C14.6648328,7.44023564 14.0811451,5.95994041 12.9034228,4.82114707 L12.9034228,4.82114707 L12.9034228,4.82139085 C12.3902277,4.32550108 12.3902277,3.52179036 12.9034228,3.02602248 L12.9034228,3.02602248 C13.416618,2.53043743 14.248628,2.53043743 14.7620335,3.02602248 L14.7620335,3.02602248 C16.4479667,4.65375813 17.296296,6.79885563 17.2945085,8.93225217 L17.2945085,8.93225217 C17.296296,11.065669 16.4477985,13.2108072 14.7617601,14.8385834 L14.7617601,14.8385834 C13.078035,16.4658925 10.8597482,17.2851029 8.65288074,17.2850623 L8.65288074,17.2850623 C8.65111422,17.2850623 8.64896916,17.2850623 8.6472447,17.2850623 L8.6472447,17.2850623 L8.6472447,17.2850623 Z M7.33316395,8.93249594 L7.33316395,1.26933234 C7.33316395,0.568431744 7.9214993,0 8.647455,0 L8.647455,0 C9.37334761,0 9.96157782,0.568431744 9.96157782,1.26933234 L9.96157782,1.26933234 L9.96157782,8.93249594 C9.96157782,9.63341685 9.37330555,10.2017876 8.647455,10.2017876 L8.647455,10.2017876 C7.9214993,10.2017876 7.33316395,9.63339653 7.33316395,8.93249594 L7.33316395,8.93249594 L7.33316395,8.93249594 Z" id="Shape" fill="#8492A6" fill-rule="nonzero"></path>
    </g>
</svg>